<svg xmlns="http://www.w3.org/2000/svg" width="440.7" height="343.2" viewBox="0 0 440.7 343.2"><svg width="128" height="128" x="156.35" y="12" viewBox="0 0 64 64"><defs><clipPath id="a"><rect width="60" height="60" x="2" y="2" rx="15"/></clipPath></defs><rect width="60" height="60" x="2" y="2" fill="#fbe9c5" rx="15"/><g clip-path="url(#a)"><g fill="#ea4939"><path d="m32 42 39.5-6.3-3.9-11.9zM32 42l28.3-28.3-10.1-7.3zM32 42l6.3-39.5H25.7zM32 42 17.7 4.7 6.8 10.9zM32 42-3.6 23.8l-3.9 11.9z"/></g><path fill="#ef9c1e" d="M19 42a13 13 0 0 1 26 0Z"/><path fill="#275350" d="M2 49q30-5 60 0v13H2Z"/></g><rect width="60" height="60" x="2" y="2" fill="none" stroke="#e7d9b8" stroke-width="1.5" rx="15"/></svg><path fill="#4a6163" d="m89.14 238.82-9.408-77.76h14.592l4.608 45.312 5.856-45.216h11.424l6.144 44.928 4.704-45.024h14.4l-9.312 77.76h-14.976l-6.624-46.944-6.24 46.944Zm64.96 0v-77.76h17.184v31.488h12.096V161.06h17.184v77.76H183.38v-33.984h-12.096v33.984Zm58.528 0 14.688-77.76H246.9l14.496 77.76h-15.84l-2.592-16.416H231.54l-2.688 16.416Zm20.448-26.688h8.256l-4.128-30.336Zm47.2 26.688v-64.992h-11.712V161.06h40.608v12.768h-11.616v64.992Zm60.352 1.152q-7.296 0-12.192-2.592t-7.392-8.016-2.784-14.064l14.688-2.208q.096 4.992.912 8.064t2.304 4.416 3.6 1.344q2.688 0 3.504-1.824t.816-3.84q0-4.8-2.304-8.112t-6.24-6.672l-6.72-5.856q-4.416-3.744-7.44-8.496t-3.024-11.76q0-9.888 5.856-15.12t15.936-5.232q6.24 0 10.032 2.112t5.76 5.52 2.688 7.2.816 7.248l-14.784 1.824q-.096-3.456-.432-6t-1.392-3.936-3.264-1.392q-2.4 0-3.504 2.016t-1.104 4.032q0 4.32 2.064 7.056t5.424 5.712l6.432 5.664q5.088 4.32 8.592 9.792t3.504 13.536q0 5.472-2.496 9.936t-7.056 7.056-10.8 2.592M11.998 331.17v-77.76h17.184v31.488h12.096V253.41h17.184v77.76H41.278v-33.984H29.182v33.984Zm58.528 0 14.688-77.76h19.584l14.496 77.76h-15.84l-2.592-16.416H89.438L86.75 331.17Zm20.448-26.688h8.256l-4.128-30.336Zm40.192 26.688v-77.76h26.112q7.008 0 11.52 2.64t6.72 7.68 2.208 12.24q0 9.024-2.976 13.776t-8.064 6.576-11.424 1.824h-6.912v33.024Zm17.184-45.024h5.76q3.168 0 4.8-1.152t2.16-3.456.528-5.856q0-2.976-.432-5.232t-2.064-3.6-5.088-1.344h-5.664Zm41.632 45.024v-77.76h26.112q7.008 0 11.52 2.64t6.72 7.68 2.208 12.24q0 9.024-2.976 13.776t-8.064 6.576-11.424 1.824h-6.912v33.024Zm17.184-45.024h5.76q3.168 0 4.8-1.152t2.16-3.456.528-5.856q0-2.976-.432-5.232t-2.064-3.6-5.088-1.344h-5.664Zm41.632 45.024v-77.76h34.944v11.712h-17.76v19.296h13.536v11.904h-13.536v23.232h17.952v11.616Zm46.912 0v-77.76h12.096l15.936 37.44v-37.44h14.208v77.76h-11.616l-15.936-40.32v40.32Zm57.952 0v-77.76h17.184v77.76Zm32.8 0v-77.76h12.096l15.936 37.44v-37.44h14.208v77.76h-11.616l-15.936-40.32v40.32Z"/></svg>