<svg xmlns="http://www.w3.org/2000/svg" width="595.3" height="188" viewBox="0 0 595.3 188"><svg width="155.83" height="155.83" x="12" y="16.1" viewBox="0 0 64 64"><defs><clipPath id="a"><rect width="60" height="60" x="2" y="2" rx="15"/></clipPath></defs><rect width="60" height="60" x="2" y="2" fill="#fbe9c5" rx="15"/><g clip-path="url(#a)"><g fill="#ea4939"><path d="m32 42 39.5-6.3-3.9-11.9zM32 42l28.3-28.3-10.1-7.3zM32 42l6.3-39.5H25.7zM32 42 17.7 4.7 6.8 10.9zM32 42-3.6 23.8l-3.9 11.9z"/></g><path fill="#ef9c1e" d="M19 42a13 13 0 0 1 26 0Z"/><path fill="#275350" d="M2 49q30-5 60 0v13H2Z"/></g><rect width="60" height="60" x="2" y="2" fill="none" stroke="#e7d9b8" stroke-width="1.5" rx="15"/></svg><path fill="#4a6163" d="m198.85 87.53-9.016-74.52h13.984l4.416 43.424 5.612-43.332h10.948l5.888 43.056 4.508-43.148h13.8l-8.924 74.52h-14.352l-6.348-44.988-5.98 44.988Zm61.42 0V13.01h16.468v30.176h11.592V13.01h16.468v74.52H288.33V54.962h-11.592V87.53Zm55.256 0 14.076-74.52h18.768l13.892 74.52h-15.18l-2.484-15.732H333.65l-2.576 15.732Zm19.596-25.576h7.912l-3.956-29.072Zm44.4 25.576V25.246h-11.224V13.01h38.916v12.236h-11.132V87.53Zm57.004 1.104q-6.992 0-11.684-2.484t-7.084-7.682-2.668-13.478l14.076-2.116q.092 4.784.874 7.728t2.208 4.232 3.45 1.288q2.576 0 3.358-1.748t.782-3.68q0-4.6-2.208-7.774t-5.98-6.394l-6.44-5.612q-4.232-3.588-7.13-8.142t-2.898-11.27q0-9.476 5.612-14.49t15.272-5.014q5.98 0 9.614 2.024t5.52 5.29 2.576 6.9.782 6.946l-14.168 1.748q-.092-3.312-.414-5.75t-1.334-3.772-3.128-1.334q-2.3 0-3.358 1.932t-1.058 3.864q0 4.14 1.978 6.762t5.198 5.474l6.164 5.428q4.876 4.14 8.234 9.384t3.358 12.972q0 5.244-2.392 9.522t-6.762 6.762-10.35 2.484"/><path fill="#f17a7e" d="M189.826 176.04v-74.52h16.468v30.176h11.592V101.52h16.468v74.52h-16.468v-32.568h-11.592v32.568Zm55.256 0 14.076-74.52h18.768l13.892 74.52h-15.18l-2.484-15.732h-10.948l-2.576 15.732Zm19.596-25.576h7.912l-3.956-29.072Zm37.684 25.576v-74.52h25.024q6.716 0 11.04 2.53t6.44 7.36 2.116 11.73q0 8.648-2.852 13.202t-7.728 6.302-10.948 1.748h-6.624v31.648Zm16.468-43.148h5.52q3.036 0 4.6-1.104t2.07-3.312.506-5.612q0-2.852-.414-5.014t-1.978-3.45-4.876-1.288h-5.428Zm39.064 43.148v-74.52h25.024q6.716 0 11.04 2.53t6.44 7.36 2.116 11.73q0 8.648-2.852 13.202t-7.728 6.302-10.948 1.748h-6.624v31.648Zm16.468-43.148h5.52q3.036 0 4.6-1.104t2.07-3.312.506-5.612q0-2.852-.414-5.014t-1.978-3.45-4.876-1.288h-5.428Zm39.064 43.148v-74.52h33.488v11.224h-17.02v18.492h12.972v11.408h-12.972v22.264h17.204v11.132Zm44.124 0v-74.52h11.592l15.272 35.88v-35.88h13.616v74.52h-11.132l-15.272-38.64v38.64Zm54.704 0v-74.52h16.468v74.52Zm30.6 0v-74.52h11.592l15.272 35.88v-35.88h13.616v74.52h-11.132L556.93 137.4v38.64Z"/></svg>