<svg xmlns="http://www.w3.org/2000/svg" width="511.4" height="220.1" viewBox="0 0 511.4 220.1"><path fill="#f9faf4" d="m102.51 102.31-10.78-89.1h16.72l5.28 51.92 6.71-51.81h13.09l7.04 51.48 5.39-51.59h16.5l-10.67 89.1h-17.16l-7.59-53.79-7.15 53.79Zm75.85 0v-89.1h19.69v36.08h13.86V13.21h19.69v89.1h-19.69V63.37h-13.86v38.94Zm68.48 0 16.83-89.1h22.44l16.61 89.1h-18.15L281.6 83.5h-13.09l-3.08 18.81Zm23.43-30.58h9.46L275 36.97Zm55.5 30.58V27.84h-13.42V13.21h46.53v14.63h-13.31v74.47Zm70.57 1.32q-8.36 0-13.97-2.97t-8.47-9.185-3.19-16.115l16.83-2.53q.11 5.72 1.045 9.24t2.64 5.06 4.125 1.54q3.08 0 4.015-2.09t.935-4.4q0-5.5-2.64-9.295t-7.15-7.645l-7.7-6.71q-5.06-4.29-8.525-9.735T370.82 35.32q0-11.33 6.71-17.325T395.79 12q7.15 0 11.495 2.42t6.6 6.325 3.08 8.25.935 8.305l-16.94 2.09q-.11-3.96-.495-6.875t-1.595-4.51-3.74-1.595q-2.75 0-4.015 2.31t-1.265 4.62q0 4.95 2.365 8.085t6.215 6.545l7.37 6.49q5.83 4.95 9.845 11.22t4.015 15.51q0 6.27-2.86 11.385t-8.085 8.085-12.375 2.97M12 208.13v-89.1h19.69v36.08h13.86v-36.08h19.69v89.1H45.55v-38.94H31.69v38.94Zm68.48 0 16.83-89.1h22.44l16.61 89.1h-18.15l-2.97-18.81h-13.09l-3.08 18.81Zm23.43-30.58h9.46l-4.73-34.76Zm47.47 30.58v-89.1h29.92q8.03 0 13.2 3.025t7.7 8.8 2.53 14.025q0 10.34-3.41 15.785t-9.24 7.535-13.09 2.09h-7.92v37.84Zm19.69-51.59h6.6q3.63 0 5.5-1.32t2.475-3.96.605-6.71q0-3.41-.495-5.995t-2.365-4.125-5.83-1.54h-6.49Zm49.12 51.59v-89.1h29.92q8.03 0 13.2 3.025t7.7 8.8 2.53 14.025q0 10.34-3.41 15.785t-9.24 7.535-13.09 2.09h-7.92v37.84Zm19.69-51.59h6.6q3.63 0 5.5-1.32t2.475-3.96.605-6.71q0-3.41-.495-5.995t-2.365-4.125-5.83-1.54h-6.49ZM289 208.13v-89.1h40.04v13.42h-20.35v22.11h15.51v13.64h-15.51v26.62h20.57v13.31Zm55.17 0v-89.1h13.86l18.26 42.9v-42.9h16.28v89.1h-13.31L361 161.93v46.2Zm67.82 0v-89.1h19.69v89.1Zm39 0v-89.1h13.86l18.26 42.9v-42.9h16.28v89.1h-13.31l-18.26-46.2v46.2Z"/></svg>