<svg xmlns="http://www.w3.org/2000/svg" width="724.7" height="134" viewBox="0 0 724.7 134"><path fill="#4a6163" d="M24.589 101.1 11.999 12h13.633l7.356 57.775 9.265-57.559h11.014l9.488 57.548L70.061 12h13.413l-12.426 89.1H57.827l-9.932-59.698-9.759 59.698Zm70.267 0V12h14.893v31.609q3.36-3.307 7.263-5.195t8.516-1.888q3.797 0 6.116 1.952t3.4 5.12q1.08 3.17 1.08 6.874V101.1H121.23V53.427q0-2.842-.876-4.371-.877-1.53-3.446-1.53-1.579 0-3.465.898t-3.695 2.317V101.1Zm64.842.994q-4.308 0-7.395-2.23t-4.737-5.7-1.65-7.208q0-5.94 2.179-10.01t5.842-6.846 8.257-4.782 9.37-3.758v-5.475q0-2.714-.383-4.591-.384-1.878-1.446-2.859-1.063-.98-3.189-.98-1.965 0-3.11.872-1.144.873-1.634 2.454-.49 1.58-.546 3.65l-.227 3.927-14.272-.553q.39-11.014 5.493-16.246 5.103-5.233 15.52-5.233 9.574 0 13.96 5.256 4.386 5.255 4.386 14.364v29.38q0 3.481.165 6.345t.44 5.143.495 4.086H173.71q-.33-2.157-.797-4.994t-.687-4.186q-1.1 3.854-4.178 7.014t-8.351 3.16m5.528-11.142q1.42 0 2.648-.706 1.227-.707 2.21-1.716.983-1.01 1.48-1.78V69.051q-2.466 1.426-4.602 2.881t-3.696 3.132-2.434 3.708-.875 4.61q0 3.51 1.373 5.54t3.896 2.03m52.317 10.914q-6.086 0-9.537-1.983-3.45-1.984-4.882-5.706t-1.432-8.91V47.374h-6.426V37.52h6.426V18.533h15.063V37.52h9.605v9.854h-9.605v36.612q0 3.23 1.408 4.626 1.41 1.396 4.308 1.396 1.164 0 2.347-.139 1.184-.138 2.227-.248v11.472q-1.803.273-4.297.523-2.495.25-5.205.25m37.065.228q-8.094 0-13.25-4.3-5.156-4.298-7.292-12.555l11.04-4.22q1.333 5.142 3.565 7.883 2.232 2.742 5.678 2.742 2.622 0 3.96-1.333 1.337-1.332 1.337-3.617 0-2.637-1.579-4.78t-5.464-5.362l-7.654-6.511q-4.208-3.598-6.804-7.374t-2.596-9.555q0-5.117 2.376-8.838t6.486-5.734 9.175-2.014q7.92 0 12.667 4.583 4.748 4.583 6.203 11.967l-10.12 4.162q-.553-2.675-1.604-4.951-1.05-2.277-2.7-3.68t-4.006-1.404q-2.293 0-3.657 1.443-1.364 1.442-1.364 3.571 0 1.877 1.566 3.898t4.576 4.526l7.757 7.047q2.537 2.204 4.884 4.738 2.347 2.533 3.866 5.67t1.519 7.207q0 5.446-2.484 9.218t-6.7 5.672-9.381 1.9m58.652-.994V12h16.177v37.251h18.225V12h16.177v89.1h-16.177V60.83h-18.225v40.27Zm75.778.994q-4.308 0-7.395-2.23t-4.737-5.7-1.65-7.208q0-5.94 2.179-10.01t5.842-6.846 8.257-4.782 9.37-3.758v-5.475q0-2.714-.383-4.591-.384-1.878-1.446-2.859-1.063-.98-3.189-.98-1.965 0-3.11.872-1.144.873-1.634 2.454-.49 1.58-.546 3.65l-.227 3.927-14.272-.553q.39-11.014 5.493-16.246 5.103-5.233 15.52-5.233 9.574 0 13.96 5.256 4.386 5.255 4.386 14.364v29.38q0 3.481.165 6.345t.44 5.143.495 4.086H403.05q-.33-2.157-.797-4.994t-.687-4.186q-1.1 3.854-4.178 7.014t-8.351 3.16m5.528-11.142q1.42 0 2.648-.706 1.227-.707 2.21-1.716.983-1.01 1.48-1.78V69.051q-2.466 1.426-4.602 2.881t-3.696 3.132-2.434 3.708-.875 4.61q0 3.51 1.373 5.54t3.896 2.03M428.41 122V37.52h14.949v4.833q2.658-2.647 5.968-4.237t6.984-1.59q4.268 0 7.013 1.99 2.745 1.988 4.288 5.212t2.154 6.926q.61 3.703.61 7.074v21.588q0 6.313-1.462 11.485t-4.728 8.232-8.628 3.06q-3.41 0-6.476-1.648t-5.723-4.132V122Zm21.489-30.339q2.398 0 3.548-1.602t1.565-4.288.415-5.944v-22.78q0-2.881-.44-5.271t-1.643-3.802q-1.203-1.413-3.488-1.413-1.856 0-3.52.792-1.664.79-2.977 1.94v40.133q1.423.983 3.03 1.609 1.608.626 3.51.626M482.769 122V37.52h14.95v4.833q2.658-2.647 5.968-4.237t6.984-1.59q4.268 0 7.013 1.99 2.745 1.988 4.288 5.212t2.154 6.926q.61 3.703.61 7.074v21.588q0 6.313-1.462 11.485t-4.728 8.232-8.628 3.06q-3.41 0-6.476-1.648t-5.723-4.132V122Zm21.49-30.339q2.398 0 3.548-1.602t1.565-4.288.415-5.944v-22.78q0-2.881-.44-5.271t-1.643-3.802q-1.203-1.413-3.488-1.413-1.856 0-3.52.792-1.664.79-2.977 1.94v40.133q1.423.983 3.03 1.609 1.608.626 3.51.626m52.117 10.433q-7.196 0-11.72-2.688t-6.659-7.9-2.134-12.665V59.779q0-7.618 2.16-12.774 2.162-5.156 6.741-7.817 4.58-2.662 11.612-2.662 7.52 0 11.768 2.846 4.25 2.846 6.056 8.295t1.806 13.23v9.087h-25.307V82.46q0 3.112.63 5.078t1.912 2.865 3.188.9q1.959 0 3.164-.924 1.204-.925 1.756-2.75.552-1.826.552-4.562v-5.326h14.051v4.35q0 9.627-4.864 14.815-4.865 5.188-14.712 5.188M550.7 62.582H561.9v-6.06q0-3.222-.525-5.264t-1.73-2.992-3.38-.949q-2.065 0-3.266.98-1.201.979-1.751 3.319t-.55 6.534Zm37.49 38.518V37.52h14.95v6.327q3.36-3.254 7.182-5.287 3.821-2.034 8.214-2.034 3.907 0 6.226 1.952t3.4 5.12q1.08 3.17 1.08 6.874V101.1h-14.893V53.427q0-2.842-.876-4.371-.877-1.53-3.446-1.53-1.525 0-3.33.872-1.804.87-3.557 2.237V101.1Zm54.57 0V37.52h14.95v63.58Zm-.057-73.721V15.002h15.006v12.377ZM671.61 101.1V37.52h14.949v6.327q3.36-3.254 7.182-5.287 3.821-2.034 8.214-2.034 3.907 0 6.226 1.952t3.4 5.12q1.08 3.17 1.08 6.874V101.1h-14.893V53.427q0-2.842-.876-4.371-.877-1.53-3.446-1.53-1.525 0-3.33.872-1.804.87-3.557 2.237V101.1Z"/></svg>